inDegrees=yes
name=ik_S55_A08_T01
DataType=double
version=3
OpenSimVersion=4.3-2021-08-27-4bc7ad9
endheader
time	pelvis_tilt	pelvis_list	pelvis_rotation	pelvis_tx	pelvis_ty	pelvis_tz	hip_flexion_r	hip_adduction_r	hip_rotation_r	knee_angle_r	knee_angle_r_beta	ankle_angle_r	subtalar_angle_r	mtp_angle_r	hip_flexion_l	hip_adduction_l	hip_rotation_l	knee_angle_l	knee_angle_l_beta	ankle_angle_l	subtalar_angle_l	mtp_angle_l	lumbar_extension	lumbar_bending	lumbar_rotation	arm_flex_r	arm_add_r	arm_rot_r	elbow_flex_r	pro_sup_r	wrist_flex_r	wrist_dev_r	arm_flex_l	arm_add_l	arm_rot_l	elbow_flex_l	pro_sup_l	wrist_flex_l	wrist_dev_l
0	0	0	0	0	0.9399999999999999	0	0	0	0	0	0	0	0	0	0	0	0	0	0	0	0	0	0	0	0	0	0	0	0	89.99999999963507	0	0	0	0	0	0	89.99999999869995	0	0
0.02	-4.748073040738991	-0.8523099742419443	21.07245484169255	0	0.9399999999999999	0	4.941585060154985	-2.280364578656628	-1.658705495702988	7.42595067270441	0.1296072893293798	0	0	0	4.941585060154985	-2.280364578656628	-1.658705495702988	7.42595067270441	0.1296072893293798	0	0	0	-2.517851279580564	-3.567313915040274	0.1275860720970983	20.24756196135976	-13.84707783042604	-12.4081259406676	55.02054013789274	128.8991635832385	0	0	15.71421028222691	-18.05606671769052	-12.08993051007746	65.79666696618708	141.5436905439453	0	0
0.04	-4.47116639339145	-2.136946398545681	20.30976866996772	0	0.9399999999999999	0	44.07547001148044	-10.23279019853902	-10.42551550547122	55.30216164032026	0.9652048040936966	0	0	0	44.07547001148044	-10.23279019853902	-10.42551550547122	55.30216164032026	0.9652048040936966	0	0	0	-2.274825412631796	-2.311751146239572	0.9515830211404234	20.20889401680067	-13.8427630655064	-12.42140369987854	55.03989259369402	128.8524410898328	0	0	15.69592645387703	-18.10163861394194	-12.02187418448612	65.82635807036061	141.4978491154053	0	0
0.06	-4.473182969390791	-2.136563951201775	20.30901747796563	0	0.9399999999999999	0	44.07696213417838	-10.23151554033841	-10.4240083666232	55.30183253302389	0.9651990600877827	0	0	0	44.07696213417838	-10.23151554033841	-10.4240083666232	55.30183253302389	0.9651990600877827	0	0	0	-2.279482057615543	-2.308784782634205	0.9547932926839841	20.22234064769209	-13.85698485750658	-12.40834922494077	55.07163144856595	128.8143969280237	0	0	15.68995853105173	-18.1200643046683	-11.99709783166892	65.84043363490696	141.4297959280254	0	0
0.08	-4.473479239589878	-2.137470381081508	20.30208226289912	0	0.9399999999999999	0	44.07751509265193	-10.23097661837336	-10.42340769502202	55.30171350671976	0.9651969826868791	0	0	0	44.07751509265193	-10.23097661837336	-10.42340769502202	55.30171350671976	0.9651969826868791	0	0	0	-2.281226400937813	-2.308675801870156	0.9530014768854125	20.20849084241691	-13.86585783231548	-12.41330465157236	55.0795112703297	128.8055358599298	0	0	15.69514729173058	-18.13307005341124	-11.99088152008719	65.8452674782946	141.4219965702507	0	0
0.1	-4.46965985034632	-2.133468771221179	20.3012197306942	0	0.9399999999999999	0	44.07728688530439	-10.2311208182094	-10.42361032257601	55.30176429140489	0.9651978690468442	0	0	0	44.07728688530439	-10.2311208182094	-10.42361032257601	55.30176429140489	0.9651978690468442	0	0	0	-2.275677622208653	-2.306786162973133	0.9566127540522048	20.19934809583932	-13.85708429258719	-12.42351274257024	55.07444975954623	128.8425221128148	0	0	15.66619865530683	-18.12401631606402	-11.9897861214898	65.84274663521684	141.4820626788551	0	0
0.12	-4.472989917022014	-2.127880410228424	20.3142055654568	0	0.9399999999999999	0	44.07793857701498	-10.23040702306993	-10.42284718496527	55.30162790154225	0.9651954885946747	0	0	0	44.07793857701498	-10.23040702306993	-10.42284718496527	55.30162790154225	0.9651954885946747	0	0	0	-2.27809861835648	-2.299574894120702	0.9574962652415034	20.17689405289393	-13.8579776667932	-12.38769644996075	55.09158343966467	128.8255739449098	0	0	15.66737417720626	-18.12947275645098	-11.95266987415473	65.85087883358416	141.4704789962917	0	0
0.14	-4.476192377633345	-2.12401969718917	20.31270849549388	0	0.9399999999999999	0	44.07945854589485	-10.22893377494377	-10.42118985717999	55.30130205669351	0.9651898015292136	0	0	0	44.07945854589485	-10.22893377494377	-10.42118985717999	55.30130205669351	0.9651898015292136	0	0	0	-2.282771601949956	-2.292749894629189	0.95712612127645	20.17220973956521	-13.85871233883794	-12.36221953619412	55.1288163724277	128.7737346527719	0	0	15.66685168296241	-18.13627587407082	-11.92780543866293	65.86875273482374	141.4051358480584	0	0
0.16	-4.47554233218205	-2.118812028956711	20.31642861155186	0	0.9399999999999999	0	44.07904670593015	-10.22918415331451	-10.421545957204	55.30139556545883	0.965191433565048	-1.634885030285498e-35	0	0	44.07904670593015	-10.22918415331451	-10.421545957204	55.30139556545883	0.965191433565048	-1.634885030285498e-35	0	0	-2.279538527048565	-2.288622305834716	0.9561760764529559	20.16807297899928	-13.85013835163252	-12.36508523362086	55.12639619270714	128.7957509862814	0	0	15.64522733340404	-18.13703012667087	-11.93896146461493	65.8589548166224	141.4491467212651	0	0
0.18	-4.47928080806587	-2.115421378585709	20.3165733762975	0	0.9399999999999999	0	44.07978073881336	-10.22848688949428	-10.42075740194141	55.30123713356957	0.9651886684069402	0	0	0	44.07978073881336	-10.22848688949428	-10.42075740194141	55.30123713356957	0.9651886684069402	0	0	0	-2.283434285745313	-2.282987325194939	0.9531823098702605	20.15884950762776	-13.85613141651897	-12.36595395259171	55.14781376060566	128.769495647653	0	0	15.65024510938051	-18.1431233159254	-11.94602872676857	65.86877898330677	141.4177371496315	0	0
0.2	-4.474412099260876	-2.113608157983489	20.32553752354426	0	0.9399999999999999	0	44.07943305258199	-10.22878168146943	-10.42111334798688	55.30131192824043	0.9651899738202097	0	0	0	44.07943305258199	-10.22878168146943	-10.42111334798688	55.30131192824043	0.9651899738202097	0	0	0	-2.277671435078203	-2.283247764378125	0.9495455304083859	20.13139311234251	-13.84011374318496	-12.37716064548901	55.16028261168993	128.7968140695234	0	0	15.62460417754899	-18.14126357781058	-11.95991262078623	65.86740670920436	141.4900053816235	0	0
0.22	-4.475246481064351	-2.113134001338306	20.33168510643876	0	0.9399999999999999	0	44.08008582870115	-10.22816161884211	-10.42041519840272	55.30117040422415	0.9651875037601549	0	0	0	44.08008582870115	-10.22816161884211	-10.42041519840272	55.30117040422415	0.9651875037601549	0	0	0	-2.279608414287301	-2.281592392047471	0.9487070710592458	20.118661708465	-13.85309381580499	-12.38815625626436	55.18280252092411	128.7809142749302	0	0	15.62425373215891	-18.15832521935807	-11.9720153412985	65.87293079152998	141.4947635286595	0	0
0.24	-4.474820577408781	-2.113126739771835	20.33919720730301	0	0.9399999999999999	0	44.08123567623608	-10.22706001056325	-10.41917155617405	55.30092289885324	0.9651831839765163	0	0	0	44.08123567623608	-10.22706001056325	-10.41917155617405	55.30092289885324	0.9651831839765163	0	0	0	-2.281482322149773	-2.280167500521536	0.9482534251115801	20.1105324296495	-13.83733083171615	-12.35729922602732	55.21657504912611	128.7446813125179	0	0	15.62664743813746	-18.1578667342261	-11.94788147839721	65.88927691167275	141.4590963325597	0	0
